{"title":"The Honey Killer 2018 1080p WEB-DL DD 2.0 x264 [MW]","magnet":"magnet:?xt=urn:btih:0acd3c351594ecef8f6e6023acbcf87b4653e88c&dn=The+Honey+Killer+2018+1080p+WEB-DL+DD+2.0+x264+%5BMW%5D&tr=udp%3A%2F%2Ftracker.leechers-paradise.org%3A6969&tr=udp%3A%2F%2Fzer0day.ch%3A1337&tr=udp%3A%2F%2Fopen.demonii.com%3A1337&tr=udp%3A%2F%2Ftracker.coppersurfer.tk%3A6969&tr=udp%3A%2F%2Fexodus.desync.com%3A6969","uploader":"MFreaky","categoryP":"video","categoryS":"hd___movies","size":"1445556537","seeders":"0","leechers":"0","description":" <a href=\"https://pichub.site/image/aKPOZ\" rel=\"nofollow\" target=\"_NEW\">https://pichub.site/image/aKPOZ</a> <a href=\"\nhttps://pichub.site/image/aKXBg\" rel=\"nofollow\" target=\"_NEW\">\nhttps://pichub.site/image/aKXBg</a> <a href=\"\nhttps://pichub.site/image/aKnPI\" rel=\"nofollow\" target=\"_NEW\">\nhttps://pichub.site/image/aKnPI</a> <a href=\"\nhttps://pichub.site/image/aK3fX\" rel=\"nofollow\" target=\"_NEW\">\nhttps://pichub.site/image/aK3fX</a> <a href=\"\nhttps://pichub.site/image/aKZh8\" rel=\"nofollow\" target=\"_NEW\">\nhttps://pichub.site/image/aKZh8</a>\r\n\r\nGeneral\r\nFormat : Matroska\r\nFormat version : Version 4 / Version 2\r\nFile size : 1.35 GiB\r\nDuration : 1 h 20 min\r\nOverall bit rate : 2 406 kb/s\r\n\r\nVideo\r\nID : 1\r\nFormat : AVC\r\nFormat/Info : Advanced Video Codec\r\nFormat profile : High@L4.1\r\nFormat settings : CABAC / 4 Ref Frames\r\nFormat settings, CABAC : Yes\r\nFormat settings, RefFrames : 4 frames\r\nCodec ID : V_MPEG4/ISO/AVC\r\nDuration : 1 h 20 min\r\nBit rate : 2 200 kb/s\r\nWidth : 1 916 pixels\r\nHeight : 798 pixels\r\nDisplay aspect ratio : 2.40:1\r\nFrame rate mode : Constant\r\nFrame rate : 25.000 FPS\r\nColor space : YUV\r\nChroma subsampling : 4:2:0\r\nBit depth : 8 bits\r\nScan type : Progressive\r\nBits/(Pixel*Frame) : 0.058\r\nStream size : 1.22 GiB (91%)\r\nWriting library : x264 core 155 r2901 7d0ff22\r\nDefault : Yes\r\nForced : No\r\n\r\nAudio\r\nID : 2\r\nFormat : E-AC-3\r\nFormat/Info : Enhanced Audio Coding 3\r\nCodec ID : A_EAC3\r\nDuration : 1 h 20 min\r\nBit rate mode : Constant\r\nBit rate : 224 kb/s\r\nChannel(s) : 2 channels\r\nChannel positions : Front: L R\r\nSampling rate : 48.0 kHz\r\nFrame rate : 187.500 FPS (256 SPF)\r\nCompression mode : Lossy\r\nStream size : 128 MiB (9%)\r\nLanguage : English\r\nService kind : Complete Main\r\nDefault : Yes\r\nForced : No\r\n\r\nText\r\nID : 3\r\nFormat : UTF-8\r\nCodec ID : S_TEXT/UTF8\r\nCodec ID/Info : UTF-8 Plain Text\r\nDuration : 1 h 20 min\r\nBit rate : 50 b/s\r\nCount of elements : 1142\r\nStream size : 29.7 KiB (0%)\r\nTitle : SDH\r\nLanguage : English\r\nDefault : No\r\nForced : No","last_updated":"2018-07-16T12:01:31.840Z","parsed":{"xt":"urn:btih:0acd3c351594ecef8f6e6023acbcf87b4653e88c","dn":"The Honey Killer 2018 1080p WEB-DL DD 2.0 x264 [MW]","tr":["udp://exodus.desync.com:6969","udp://open.demonii.com:1337","udp://tracker.coppersurfer.tk:6969","udp://tracker.leechers-paradise.org:6969","udp://zer0day.ch:1337"],"infoHash":"0acd3c351594ecef8f6e6023acbcf87b4653e88c","infoHashBuffer":{"type":"Buffer","data":[10,205,60,53,21,148,236,239,143,110,96,35,172,188,248,123,70,83,232,140]},"name":"The Honey Killer 2018 1080p WEB-DL DD 2.0 x264 [MW]","announce":["udp://exodus.desync.com:6969","udp://open.demonii.com:1337","udp://tracker.coppersurfer.tk:6969","udp://tracker.leechers-paradise.org:6969","udp://zer0day.ch:1337"],"urlList":[]}}